<?xml version="1.0" standalone="no"?>
<svg viewBox="0 0 200 200" xmlns="http://www.w3.org/2000/svg">
  <path fill="#FF0066" d="M31.5,-46.4C40,-43.5,45.6,-33.5,52.4,-22.7C59.2,-12,67.2,-0.6,66.8,10.3C66.3,21.3,57.5,31.8,47.5,38.6C37.6,45.4,26.4,48.6,14.3,55.2C2.2,61.7,-10.9,71.7,-21.9,70.4C-32.9,69.1,-41.8,56.5,-54.1,45.3C-66.3,34,-81.8,24,-81.6,12.9C-81.4,1.8,-65.4,-10.4,-53.1,-18.8C-40.8,-27.2,-32.1,-31.8,-23.8,-34.7C-15.6,-37.6,-7.8,-38.9,1.8,-41.8C11.5,-44.7,23,-49.2,31.5,-46.4Z" transform="translate(100 100)" />
</svg>
